<svg width="95" height="208" viewBox="0 0 95 208" fill="none" xmlns="http://www.w3.org/2000/svg">
<g filter="url(#filter0_d_8_19)">
<path d="M65.8319 198.177C67.0341 199.317 68.9329 199.267 70.073 198.064C71.2131 196.862 71.1628 194.963 69.9606 193.823L67.8962 196L65.8319 198.177ZM8.07125 84.0821L5.07464 83.9394L8.07125 84.0821ZM89.4084 21.7887C90.3963 20.4586 90.1189 18.5795 88.7887 17.5916L67.1131 1.49298C65.7829 0.505089 63.9038 0.782526 62.9159 2.11265C61.928 3.44278 62.2055 5.3219 63.5356 6.3098L82.8029 20.6197L68.493 39.8869C67.5051 41.2171 67.7825 43.0962 69.1127 44.0841C70.4428 45.072 72.3219 44.7945 73.3098 43.4644L89.4084 21.7887ZM65.4134 189.345L63.3122 187.204L59.0297 191.406L61.1309 193.547L63.2721 191.446L65.4134 189.345ZM52.1641 183.875L54.1452 186.128L58.6508 182.166L56.6697 179.913L54.4169 181.894L52.1641 183.875ZM48.416 170.055L46.546 167.709L41.8543 171.449L43.7243 173.795L46.0701 171.925L48.416 170.055ZM35.7731 163.305L37.5253 165.74L42.3956 162.236L40.6434 159.801L38.2083 161.553L35.7731 163.305ZM33.4163 149.173L31.7986 146.646L26.7457 149.882L28.3634 152.408L30.8899 150.791L33.4163 149.173ZM21.5866 141.078L23.0428 143.701L28.2885 140.789L26.8323 138.166L24.2094 139.622L21.5866 141.078ZM21.0386 126.769L19.7848 124.044L14.3339 126.552L15.5877 129.277L18.3131 128.023L21.0386 126.769ZM10.5878 116.96L11.5778 119.792L17.2417 117.812L16.2517 114.98L13.4197 115.97L10.5878 116.96ZM12.7867 102.826L12.1512 99.8941L6.28736 101.165L6.92284 104.097L9.85476 103.461L12.7867 102.826ZM5.09421 90.7352L5.24814 93.7312L11.2402 93.4234L11.0863 90.4273L8.09026 90.5812L5.09421 90.7352ZM11.5867 79.0747L12.0478 76.1104L6.11906 75.1883L5.65802 78.1527L8.62238 78.6137L11.5867 79.0747ZM8.69933 66.9488L7.59703 69.7389L13.1773 71.9436L14.2796 69.1534L11.4895 68.0511L8.69933 66.9488ZM19.0784 60.0188L20.7398 57.5209L15.744 54.198L14.0826 56.6959L16.5805 58.3573L19.0784 60.0188ZM21.3101 47.7552L19.2277 49.9147L23.5468 54.0795L25.6292 51.92L23.4697 49.8376L21.3101 47.7552ZM33.4886 44.92L35.8636 43.0873L32.1981 38.3371L29.8231 40.1699L31.6558 42.545L33.4886 44.92ZM39.1915 33.8126L36.617 35.3528L39.6975 40.5017L42.2719 38.9615L40.7317 36.387L39.1915 33.8126ZM51.6985 33.946L54.4107 32.6637L51.8461 27.2394L49.1339 28.5217L50.4162 31.2338L51.6985 33.946ZM59.4756 24.1644L56.6652 25.2142L58.7647 30.8349L61.575 29.7851L60.5253 26.9748L59.4756 24.1644ZM71.774 26.4249L74.6576 25.5975L73.0029 19.8302L70.1192 20.6576L70.9466 23.5413L71.774 26.4249ZM81.0163 17.9997L78.0743 18.5869L79.2487 24.4708L82.1907 23.8836L81.6035 20.9416L81.0163 17.9997ZM67.8962 196L69.9606 193.823C68.5387 192.475 67.0158 190.978 65.4134 189.345L63.2721 191.446L61.1309 193.547C62.7799 195.228 64.3541 196.775 65.8319 198.177L67.8962 196ZM54.4169 181.894L56.6697 179.913C53.9846 176.86 51.2098 173.559 48.416 170.055L46.0701 171.925L43.7243 173.795C46.5803 177.377 49.4172 180.752 52.1641 183.875L54.4169 181.894ZM38.2083 161.553L40.6434 159.801C38.1795 156.376 35.754 152.824 33.4163 149.173L30.8899 150.791L28.3634 152.408C30.7639 156.157 33.2507 159.8 35.7731 163.305L38.2083 161.553ZM24.2094 139.622L26.8323 138.166C24.7525 134.42 22.8062 130.612 21.0386 126.769L18.3131 128.023L15.5877 129.277C17.4246 133.27 19.4408 137.214 21.5866 141.078L24.2094 139.622ZM13.4197 115.97L16.2517 114.98C14.831 110.916 13.6597 106.854 12.7867 102.826L9.85476 103.461L6.92284 104.097C7.85392 108.393 9.09581 112.692 10.5878 116.96L13.4197 115.97ZM8.09026 90.5812L11.0863 90.4273C10.9789 88.3375 10.9706 86.2686 11.0679 84.2247L8.07125 84.0821L5.07464 83.9394C4.96742 86.1917 4.97726 88.4589 5.09421 90.7352L8.09026 90.5812ZM8.07125 84.0821L11.0679 84.2247C11.1518 82.4607 11.327 80.7445 11.5867 79.0747L8.62238 78.6137L5.65802 78.1527C5.36528 80.0349 5.1687 81.9637 5.07464 83.9394L8.07125 84.0821ZM11.4895 68.0511L14.2796 69.1534C15.5557 65.9234 17.1742 62.8815 19.0784 60.0188L16.5805 58.3573L14.0826 56.6959C11.9604 59.8864 10.1404 63.3012 8.69933 66.9488L11.4895 68.0511ZM23.4697 49.8376L25.6292 51.92C28.0431 49.4167 30.6825 47.0854 33.4886 44.92L31.6558 42.545L29.8231 40.1699C26.8099 42.495 23.9479 45.0197 21.3101 47.7552L23.4697 49.8376ZM40.7317 36.387L42.2719 38.9615C45.3375 37.1274 48.5008 35.4579 51.6985 33.946L50.4162 31.2338L49.1339 28.5217C45.7767 30.109 42.4398 31.8692 39.1915 33.8126L40.7317 36.387ZM60.5253 26.9748L61.575 29.7851C65.0476 28.488 68.4752 27.3714 71.774 26.4249L70.9466 23.5413L70.1192 20.6576C66.6783 21.6449 63.1019 22.8099 59.4756 24.1644L60.5253 26.9748ZM81.6035 20.9416L82.1907 23.8836C84.0425 23.514 85.799 23.2098 87.4382 22.9678L87 20L86.5618 17.0322C84.8178 17.2897 82.9618 17.6114 81.0163 17.9997L81.6035 20.9416Z" fill="#DCC3A4"/>
</g>
<defs>
<filter id="filter0_d_8_19" x="0.7" y="0.601214" width="93.6002" height="206.699" filterUnits="userSpaceOnUse" color-interpolation-filters="sRGB">
<feFlood flood-opacity="0" result="BackgroundImageFix"/>
<feColorMatrix in="SourceAlpha" type="matrix" values="0 0 0 0 0 0 0 0 0 0 0 0 0 0 0 0 0 0 127 0" result="hardAlpha"/>
<feOffset dy="4"/>
<feGaussianBlur stdDeviation="2.15"/>
<feComposite in2="hardAlpha" operator="out"/>
<feColorMatrix type="matrix" values="0 0 0 0 0.408654 0 0 0 0 0.23231 0 0 0 0 0.0235762 0 0 0 1 0"/>
<feBlend mode="multiply" in2="BackgroundImageFix" result="effect1_dropShadow_8_19"/>
<feBlend mode="normal" in="SourceGraphic" in2="effect1_dropShadow_8_19" result="shape"/>
</filter>
</defs>
</svg>
